<svg xmlns="http://www.w3.org/2000/svg" viewBox="0 0 1600 1000" role="img" aria-label="Grant Assistant — placeholder cover">
  <rect width="1600" height="1000" fill="#f3f1ea"/>
  <line x1="133" y1="0" x2="133" y2="1000" stroke="#d8d3c6" stroke-width="1" opacity="0.5"/><line x1="266" y1="0" x2="266" y2="1000" stroke="#d8d3c6" stroke-width="1" opacity="0.5"/><line x1="399" y1="0" x2="399" y2="1000" stroke="#d8d3c6" stroke-width="1" opacity="0.5"/><line x1="532" y1="0" x2="532" y2="1000" stroke="#d8d3c6" stroke-width="1" opacity="0.5"/><line x1="665" y1="0" x2="665" y2="1000" stroke="#d8d3c6" stroke-width="1" opacity="0.5"/><line x1="798" y1="0" x2="798" y2="1000" stroke="#d8d3c6" stroke-width="1" opacity="0.5"/><line x1="931" y1="0" x2="931" y2="1000" stroke="#d8d3c6" stroke-width="1" opacity="0.5"/><line x1="1064" y1="0" x2="1064" y2="1000" stroke="#d8d3c6" stroke-width="1" opacity="0.5"/><line x1="1197" y1="0" x2="1197" y2="1000" stroke="#d8d3c6" stroke-width="1" opacity="0.5"/><line x1="1330" y1="0" x2="1330" y2="1000" stroke="#d8d3c6" stroke-width="1" opacity="0.5"/><line x1="1463" y1="0" x2="1463" y2="1000" stroke="#d8d3c6" stroke-width="1" opacity="0.5"/><line x1="1596" y1="0" x2="1596" y2="1000" stroke="#d8d3c6" stroke-width="1" opacity="0.5"/>
  
  <rect x="560" y="180" width="480" height="560" rx="12" fill="#fbfaf7" stroke="#211d18" stroke-width="2.5"/>
  <rect x="600" y="230" width="220" height="16" rx="8" fill="#059e5c"/>
  <rect x="600" y="280" width="400" height="13" rx="6.5" fill="#d8d3c6"/><rect x="600" y="316" width="400" height="13" rx="6.5" fill="#d8d3c6"/><rect x="600" y="352" width="400" height="13" rx="6.5" fill="#d8d3c6"/><rect x="600" y="388" width="400" height="13" rx="6.5" fill="#d8d3c6"/><rect x="600" y="424" width="240" height="13" rx="6.5" fill="#d8d3c6"/>
  <rect x="600" y="480" width="400" height="90" rx="8" fill="none" stroke="#059e5c" stroke-width="2" stroke-dasharray="6 6"/>
  <rect x="620" y="505" width="300" height="12" rx="6" fill="#059e5c" opacity="0.45"/>
  <rect x="620" y="530" width="240" height="12" rx="6" fill="#059e5c" opacity="0.45"/>
  <g stroke="#059e5c" stroke-width="2.5" stroke-linecap="round">
    <path d="M1090 300 l0 56 M1062 328 l56 0"/>
    <path d="M1120 420 l0 34 M1103 437 l34 0"/>
  </g>
  <rect x="1" y="1" width="1598" height="998" fill="none" stroke="#d8d3c6" stroke-width="2"/>
  <text x="800" y="820" text-anchor="middle" font-family="Georgia, serif" font-size="50" fill="#211d18">Grant Assistant</text>
  <text x="800" y="866" text-anchor="middle" font-family="Menlo, monospace" font-size="26" fill="#8a8478" letter-spacing="1">PLACEHOLDER COVER — REPLACE · 1600×1000</text>
</svg>
