<svg xmlns="http://www.w3.org/2000/svg" viewBox="0 0 1200 675" role="img" aria-label="Article Figure — placeholder image">
  <rect width="1200" height="675" fill="#f3f1ea"/>
  <line x1="100" y1="0" x2="100" y2="675" stroke="#d8d3c6" stroke-width="1" opacity="0.5"/><line x1="200" y1="0" x2="200" y2="675" stroke="#d8d3c6" stroke-width="1" opacity="0.5"/><line x1="300" y1="0" x2="300" y2="675" stroke="#d8d3c6" stroke-width="1" opacity="0.5"/><line x1="400" y1="0" x2="400" y2="675" stroke="#d8d3c6" stroke-width="1" opacity="0.5"/><line x1="500" y1="0" x2="500" y2="675" stroke="#d8d3c6" stroke-width="1" opacity="0.5"/><line x1="600" y1="0" x2="600" y2="675" stroke="#d8d3c6" stroke-width="1" opacity="0.5"/><line x1="700" y1="0" x2="700" y2="675" stroke="#d8d3c6" stroke-width="1" opacity="0.5"/><line x1="800" y1="0" x2="800" y2="675" stroke="#d8d3c6" stroke-width="1" opacity="0.5"/><line x1="900" y1="0" x2="900" y2="675" stroke="#d8d3c6" stroke-width="1" opacity="0.5"/><line x1="1000" y1="0" x2="1000" y2="675" stroke="#d8d3c6" stroke-width="1" opacity="0.5"/><line x1="1100" y1="0" x2="1100" y2="675" stroke="#d8d3c6" stroke-width="1" opacity="0.5"/><line x1="0" y1="337.5" x2="1200" y2="337.5" stroke="#d8d3c6" stroke-width="1" opacity="0.5"/>
  <rect x="120" y="283.5" width="168.00000000000003" height="94.50000000000001" rx="8" fill="none" stroke="#211d18" stroke-width="2"/><line x1="288" y1="330.75" x2="384" y2="330.75" stroke="#9c3b0b" stroke-width="2"/><rect x="384" y="283.5" width="168.00000000000003" height="94.50000000000001" rx="8" fill="none" stroke="#211d18" stroke-width="2"/><line x1="552" y1="330.75" x2="648" y2="330.75" stroke="#9c3b0b" stroke-width="2"/><rect x="648" y="283.5" width="168.00000000000003" height="94.50000000000001" rx="8" fill="none" stroke="#211d18" stroke-width="2"/><line x1="816" y1="330.75" x2="912" y2="330.75" stroke="#9c3b0b" stroke-width="2"/><rect x="912" y="283.5" width="168.00000000000003" height="94.50000000000001" rx="8" fill="none" stroke="#211d18" stroke-width="2"/>
  <rect x="1" y="1" width="1198" height="673" fill="none" stroke="#d8d3c6" stroke-width="2"/>
  <text x="600" y="553.5" text-anchor="middle" font-family="Georgia, serif" font-size="38" fill="#211d18">Article Figure</text>
  <text x="600" y="614.3" text-anchor="middle" font-family="Menlo, monospace" font-size="22" fill="#8a8478" letter-spacing="1">PLACEHOLDER — REPLACE · 1200×675</text>
</svg>
