<svg xmlns="http://www.w3.org/2000/svg" viewBox="0 0 640 800" role="img" aria-label="Profile Photo — placeholder image">
  <rect width="640" height="800" fill="#f3f1ea"/>
  <line x1="53" y1="0" x2="53" y2="800" stroke="#d8d3c6" stroke-width="1" opacity="0.5"/><line x1="106" y1="0" x2="106" y2="800" stroke="#d8d3c6" stroke-width="1" opacity="0.5"/><line x1="159" y1="0" x2="159" y2="800" stroke="#d8d3c6" stroke-width="1" opacity="0.5"/><line x1="212" y1="0" x2="212" y2="800" stroke="#d8d3c6" stroke-width="1" opacity="0.5"/><line x1="265" y1="0" x2="265" y2="800" stroke="#d8d3c6" stroke-width="1" opacity="0.5"/><line x1="318" y1="0" x2="318" y2="800" stroke="#d8d3c6" stroke-width="1" opacity="0.5"/><line x1="371" y1="0" x2="371" y2="800" stroke="#d8d3c6" stroke-width="1" opacity="0.5"/><line x1="424" y1="0" x2="424" y2="800" stroke="#d8d3c6" stroke-width="1" opacity="0.5"/><line x1="477" y1="0" x2="477" y2="800" stroke="#d8d3c6" stroke-width="1" opacity="0.5"/><line x1="530" y1="0" x2="530" y2="800" stroke="#d8d3c6" stroke-width="1" opacity="0.5"/><line x1="583" y1="0" x2="583" y2="800" stroke="#d8d3c6" stroke-width="1" opacity="0.5"/><line x1="636" y1="0" x2="636" y2="800" stroke="#d8d3c6" stroke-width="1" opacity="0.5"/><line x1="0" y1="400" x2="640" y2="400" stroke="#d8d3c6" stroke-width="1" opacity="0.5"/>
  <circle cx="320" cy="288" r="115.19999999999999" fill="none" stroke="#211d18" stroke-width="2"/><path d="M 128 624 Q 320 416 512 624" fill="none" stroke="#211d18" stroke-width="2"/>
  <rect x="1" y="1" width="638" height="798" fill="none" stroke="#d8d3c6" stroke-width="2"/>
  <text x="320" y="656" text-anchor="middle" font-family="Georgia, serif" font-size="20" fill="#211d18">Profile Photo</text>
  <text x="320" y="688" text-anchor="middle" font-family="Menlo, monospace" font-size="12" fill="#8a8478" letter-spacing="1">REPLACE · 640×800</text>
</svg>
